<svg version="1.1" xmlns="http://www.w3.org/2000/svg" height="1024" width="1024" viewBox="0 0 1024 1024"><path d="M572.202667 55.978667A482.474667 482.474667 0 0 0 512 52.224C253.482667 52.224 42.666667 260.864 42.666667 516.778667 42.666667 772.650667 253.44 981.333333 512 981.333333c258.474667 0 469.290667-208.64 469.290667-464.554666 0-198.613333-125.482667-368.768-303.701334-434.986667-0.213333 32.341333-1.706667 40.533333-12.544 59.861333-27.605333 52.181333-80.298667 84.48-145.536 86.954667-22.613333 2.474667-40.149333 4.949333-40.149333 4.949333 0 2.517333 87.808 156.501333 185.685333 325.461334 62.72 109.312 67.754667 124.202667 65.28 171.392-5.034667 84.48-72.789333 156.501333-165.632 183.850666-20.096 4.949333-40.192 7.466667-75.306666 4.949334-42.666667-2.474667-50.176-2.474667-82.816-19.84-42.666667-22.357333-75.306667-54.656-90.368-94.421334-15.061333-37.248-12.544-91.904 7.552-131.669333 17.578667-34.773333 60.202667-77.013333 97.877333-96.853333 50.176-24.874667 120.448-37.290667 160.597333-24.874667 10.069333 2.474667 20.053333 4.992 20.053334 2.474667 0 0-7.509333-14.890667-20.053334-32.298667-12.544-17.365333-67.754667-96.853333-125.44-176.384-57.770667-81.962667-105.429333-149.034667-107.946666-154.026667-5.034667-9.898667 10.026667-42.24 30.122666-59.605333a184.576 184.576 0 0 1 42.666667-29.824c25.088-14.890667 42.666667-19.84 128-39.722667 7.850667-1.962667 15.36-4.010667 22.613333-6.186666z" fill="#CCCCCC"></path></svg>